<?xml version="1.0" encoding="utf-8"?>
<svg version="1.1" id="Layer_1" xmlns="http://www.w3.org/2000/svg" xmlns:xlink="http://www.w3.org/1999/xlink" x="0px" y="0px"
	 viewBox="0 0 587.6 495.2" style="enable-background:new 0 0 587.6 495.2;" xml:space="preserve">
<style type="text/css">
	.st0{fill:#E5E1E5;}
	.st1{fill:#D8D1D7;}
	.st2{fill:#FFFFFF;}
	.st3{fill:#EEBA5F;}
	.st4{fill:#434044;}
	.st5{fill:#006A38;}
	.st6{fill:#27B173;}
</style>
<g>
	<path class="st0" d="M455.1,77.5c1.6,0.3,3.2,0.7,4.7,1.1C458.3,78.2,456.7,77.8,455.1,77.5z"/>
	<path class="st0" d="M403,153C403,153,403,153,403,153c8.8,14.5,24.7,24.1,42.9,24.1c0.2,0,0.4,0,0.5,0c-0.2,0-0.4,0-0.5,0
		C427.7,177.1,411.8,167.4,403,153z"/>
	<path class="st1" d="M459.9,78.7C459.9,78.7,459.9,78.7,459.9,78.7C459.9,78.7,459.9,78.7,459.9,78.7
		C459.9,78.7,459.9,78.7,459.9,78.7z"/>
	<path class="st1" d="M459.9,175.1C459.9,175.1,459.9,175.1,459.9,175.1c-0.1,0-0.1,0-0.2,0.1C459.8,175.1,459.8,175.1,459.9,175.1z
		"/>
	<path class="st2" d="M459.9,78.7c-20.9,6.1-36.2,25.3-36.2,48.2c0,0.9,0,1.7,0.1,2.5c0.1,2,0.3,4,0.7,6c3.3,19,17.2,34.4,35.5,39.6
		c20.9-6.1,36.2-25.3,36.2-48.2C496.1,104,480.8,84.7,459.9,78.7z M445.9,146.5c-7.7,0-14-6.6-15.5-15.6c-0.1-0.5-0.1-1-0.2-1.4
		c-0.1-0.8-0.1-1.7-0.1-2.5c0-11,6.9-19.6,15.8-19.6s15.8,8.6,15.8,19.6S454.8,146.5,445.9,146.5z"/>
	<path class="st3" d="M396.2,133.4c0.9,7.1,3.3,13.7,6.8,19.5c0,0,0,0,0,0C399.5,147.1,397.1,140.5,396.2,133.4z"/>
	<path class="st1" d="M424.4,135.4c-0.3-2-0.6-4-0.7-6c0-0.8-0.1-1.7-0.1-2.5c0-22.9,15.3-42.2,36.2-48.2c0,0,0,0-0.1,0
		c-1.5-0.4-3.1-0.8-4.7-1.1c-0.2,0-0.5-0.1-0.7-0.1c-0.4-0.1-0.8-0.1-1.3-0.2c-0.6-0.1-1.3-0.2-1.9-0.2c-0.3,0-0.5,0-0.8-0.1
		c-0.5,0-1-0.1-1.6-0.1c-0.2,0-0.5,0-0.7,0c-0.8,0-1.5-0.1-2.3-0.1c-27.7,0-50.2,22.5-50.2,50.2c0,0.9,0,1.7,0.1,2.5
		c0.1,1.3,0.2,2.7,0.4,4c0.9,7.1,3.3,13.7,6.8,19.5c8.8,14.5,24.7,24.1,42.9,24.1c0.2,0,0.4,0,0.5,0c0.5,0,1.1,0,1.6,0
		c0.3,0,0.7,0,1-0.1c0.4,0,0.8-0.1,1.2-0.1c0.7-0.1,1.4-0.1,2.2-0.2c0.2,0,0.4-0.1,0.7-0.1c0.5-0.1,1-0.2,1.5-0.2
		c0.2,0,0.3-0.1,0.5-0.1c0.8-0.1,1.6-0.3,2.4-0.5c0.2,0,0.4-0.1,0.5-0.1c0.6-0.1,1.2-0.3,1.8-0.5c0.1,0,0.1,0,0.2-0.1
		C441.6,169.8,427.7,154.5,424.4,135.4z"/>
	<path class="st4" d="M445.9,107.3c-8.8,0-15.8,8.6-15.8,19.6c0,0.9,0.1,1.7,0.1,2.5c0,0.5,0.1,1,0.2,1.4c1.4,9,7.7,15.6,15.5,15.6
		c8.8,0,15.8-8.6,15.8-19.6S454.8,107.3,445.9,107.3z"/>
	<path class="st5" d="M168.4,469.7c4.2,1.7,8.5,3.2,12.9,4.6c1.1,0.2,2.4,0.3,3.7,0.5c23.3,3.6,47.1-7.4,60.7-25.8
		c-12,7.3-25.3,12.9-39.6,16.4C193.7,468.5,181,469.9,168.4,469.7z"/>
	<path class="st6" d="M104.1,129.4h-0.8c-5.2,7.6-10.1,15.3-14.7,23.2C93.4,145,98.5,137.2,104.1,129.4z"/>
	<path class="st6" d="M447.1,49.7c-9.2-7.7-43.5,12.8-55.7,26.1c-1.9,2.1-3.3,4-3.9,5.6c-4.2,10.4-17.4,15.3-25.9,6.5
		c-47.3-49.3-118.5-68.2-179.7-35.5C153.2,67.7,132.8,90,113,116c-3.4,4.4-6.6,8.9-9.7,13.5h0.8c-5.5,7.8-10.7,15.5-15.5,23.2
		c-30.3,48.7-46.1,95.4-55.9,129.3c-29.8,102.5,50,158.3,59.2,164.4c22.8,15,49.5,22.9,76.6,23.4c12.6,0.2,25.2-1.2,37.6-4.3
		c14.3-3.6,27.6-9.1,39.6-16.4c17.8-10.9,32.8-25.7,43.8-43.6c1.1-1.8,2.2-3.7,3.3-5.6c14.8-26.9,18.1-60.1,8.9-91.1
		c-6.8-23.2-19.6-43-36.9-57.5c-5.7-4.8-11.9-9-18.5-12.6c-44.4-24-101.4-8.8-124.5,33.2c-1.4,2.5-2.5,5.1-3.5,7.7
		c-4.7,12.8-5,27.4-0.7,42.1c6,20.3,20.1,38.1,37.7,47.6c8,4.3,16.9,6.5,25.9,6.6c5.9,0.1,11.9-0.8,17.6-2.6
		c13-4.1,23.4-12.7,29.2-24.1c2.9-5.6,4-11.3,3.9-16.6c0-6.1-1.6-11.8-3.8-16.8c-2.9-6.5-7-12-10.6-15.5c-9.1-9-18.9-7.6-25.5-4.8
		c-0.8,0.3-1.5,0.7-2.3,1.1c-8.5,4.4-15,12.9-15,20.2h-25.5c0-18.3,13.5-36.7,32.9-44.8c2.1-0.9,4.2-1.6,6.3-2.2
		c11.2-3.1,22.6-2.2,32.7,2.4c3.6,1.7,7,3.8,10.3,6.4c1.4,1.1,2.8,2.3,4.1,3.6c9,8.9,16.5,21.1,19.9,34.7c2.1,8.1,2.7,16.8,1.3,25.5
		c-0.9,6.1-2.9,12.3-5.9,18.4c-2.6,5.1-5.8,9.8-9.4,14.1c-7.6,9-17.4,16-28.8,20.6c-2,0.8-4.1,1.6-6.2,2.2c-8,2.5-16.2,3.7-24.5,3.7
		c-13.5,0-26.9-3.3-38.9-9.7c-20.5-11.1-36.9-29.6-46.1-51.8c-1.5-3.6-2.8-7.3-4-11.1c-7.2-24.3-4.9-48.9,6.3-69.3
		c9.2-16.8,22.3-30.2,37.6-39.9c14.6-9.2,31.2-15.1,48.5-17.2c-0.5-12-1.1-23.9-1.6-35.9c-0.6-10.2-13.3-17.3-19.6-6.9
		c-5.5,9.8-11.1,19.6-16.6,29.4c-4.6,8.1-14.5,9.6-22.1,3.6c-7.5-6.1-9.9-17.3-5.3-25.2c5.6-9.5,11.1-19.1,16.6-28.7
		c7.5-12.4,21.9-22,36.8-20.9c24.4,1.7,41.5,25,42.5,48.3c0.6,12.3,1.1,24.5,1.7,36.8c12,1.8,23.9,5.4,35.4,10.9
		c23.1,0.3,46.1,0.1,69.2-0.9c2.6-6.1,5.1-12.2,7.7-18.3c2.6-6.3,5.3-12.5,7.9-18.8c0.8-2,2-3.8,3.3-5.3c2.8-3.3,6.6-5.3,10.5-5.7
		c2.6-0.3,5.4,0.2,7.9,1.4c8,4,11.3,14.8,7.4,24.2c-1.5,3.6-3,7.2-4.5,10.9c-2.6,6.3-5.2,12.5-7.9,18.8c12.2-1.1,24.4-2.3,36.5-3.8
		c4-0.5,7.9-1,11.9-1.5c10.1-1.3,20.1-2.7,30.2-4.3c0.1,0,0.2,0,0.2,0c33.7-4.9,119.1-39.5,122.2-71.6
		C528.7,117.8,472.6,72.7,447.1,49.7z M459.9,175.1C459.9,175.1,459.9,175.1,459.9,175.1c-0.1,0-0.1,0-0.2,0.1
		c-0.6,0.2-1.2,0.3-1.8,0.5c-0.2,0-0.4,0.1-0.5,0.1c-0.8,0.2-1.6,0.4-2.4,0.5c-0.2,0-0.3,0.1-0.5,0.1c-0.5,0.1-1,0.2-1.5,0.2
		c-0.2,0-0.4,0.1-0.7,0.1c-0.7,0.1-1.4,0.2-2.2,0.2c-0.4,0-0.8,0.1-1.2,0.1c-0.3,0-0.7,0-1,0.1c-0.5,0-1.1,0-1.6,0
		c-0.2,0-0.4,0-0.5,0c-18.2,0-34.1-9.7-42.9-24.1c-3.6-5.8-5.9-12.5-6.8-19.5c-0.2-1.3-0.3-2.6-0.4-4c0-0.8-0.1-1.7-0.1-2.5
		c0-27.7,22.5-50.2,50.2-50.2c0.8,0,1.5,0,2.3,0.1c0.2,0,0.5,0,0.7,0c0.5,0,1,0.1,1.6,0.1c0.3,0,0.5,0,0.8,0.1
		c0.6,0.1,1.3,0.1,1.9,0.2c0.4,0.1,0.8,0.1,1.3,0.2c0.2,0,0.5,0.1,0.7,0.1c1.6,0.3,3.2,0.7,4.7,1.1c0,0,0,0,0.1,0c0,0,0,0,0,0
		c20.9,6.1,36.2,25.3,36.2,48.2C496.1,149.8,480.8,169,459.9,175.1z"/>
	<path class="st5" d="M343.7,257.7c16-1.4,31.9-3.2,47.7-5.3c8.6-1.2,17.2-2.5,25.8-3.9c5.5-0.9,11.1-1.8,16.6-2.8
		c2.7-0.5,5.5-1.2,8.5-2c53.9-14.3,145.6-68,145.3-117.4c0-4.6-2-8.7-5.4-11.2C552.9,93.1,495,46.5,467.8,22
		c-14.5-13.2-51.1-3.3-76.4,10.5c-8.8,4.8-16.3,10.1-21,15.1C346,25.3,318.3,11.2,289.6,4.5c-26.2-6.1-53.2-5.9-79.2,0
		c-14.3,3.3-28.4,8.3-41.8,15.1C143.8,32,121,50.3,102.4,73.9c-0.2,0.3-3.5,4.4-14.1,18c-11,14.1-20.8,28.7-29.4,43.9
		c-56,89.8-64,160.5-56.6,210.4c0,1.3-0.1,2.6-0.1,4c3.5,24.2,12.2,45.9,23.9,64.3c7.4,12.5,13.5,18.8,13.5,18.8l0.1,0
		c11.6,14,24.8,25.5,38.1,34.2c11.1,7.3,23.1,13.2,35.5,17.6c18.4,6.6,37.9,10,57.6,10c13.8,0,27.7-1.7,41.3-5.1
		c26.9-6.7,50.9-19.4,70.4-37c12.9-11.7,23.9-25.4,32.5-41.1c16.6-30.2,21.4-66.7,13.4-101.6c5.4,2.6,11.7,3.6,18.8,2.6
		c3.5-0.4,7-0.8,10.5-1.2c8.5-1.1,17-2.3,25.5-3.6c2.7-0.4,5.4-0.9,8.1-1.3c10-1.7,20-3.5,30-5.5c4.3-0.9,8.6-1.8,12.9-2.7
		c5.2-1.4,9.4-4.9,12.2-9.3c2.2-3.6,3.5-7.8,3.5-12c0-5-2-9.1-5.1-11.6c-2.9-2.3-6.7-3.3-10.9-2.5c-4.9,1-9.8,1.8-14.7,2.7
		c-9.3,1.6-18.5,3.1-27.8,4.5c-5.3,0.8-10.5,1.5-15.8,2.2c-9.5,1.2-19,2.3-28.5,3.3c-5.6,0.5-10.1-4.3-10.1-10.6
		c0-1.6-0.3-1.8,1.9-7.2C340.5,258,342.1,257.9,343.7,257.7z M330.3,194.4c-2.6,6.1-5.1,12.2-7.7,18.3c-23.1,1-46.1,1.2-69.2,0.9
		c-11.5-5.5-23.4-9.1-35.4-10.9c-0.6-12.3-1.1-24.5-1.7-36.8c-1.1-23.4-18.1-46.6-42.5-48.3c-14.9-1.1-29.3,8.5-36.8,20.9
		c-5.5,9.6-11,19.1-16.6,28.7c-4.6,7.9-2.3,19.1,5.3,25.2c7.5,6.1,17.4,4.5,22.1-3.6c5.6-9.8,11.1-19.5,16.6-29.4
		c6.3-10.4,19-3.2,19.6,6.9c0.5,12,1.1,23.9,1.6,35.9c-17.3,2.1-33.9,8-48.5,17.2c-15.3,9.7-28.4,23.2-37.6,39.9
		c-11.2,20.4-13.5,45-6.3,69.3c1.1,3.8,2.4,7.5,4,11.1c9.2,22.2,25.6,40.7,46.1,51.8c12,6.4,25.4,9.7,38.9,9.7
		c8.2,0,16.5-1.2,24.5-3.7c2.1-0.7,4.2-1.4,6.2-2.2c11.3-4.6,21.1-11.7,28.8-20.6c3.7-4.3,6.8-9,9.4-14.1c3.1-6.1,5-12.3,5.9-18.4
		c1.4-8.7,0.7-17.4-1.3-25.5c-3.4-13.6-10.9-25.8-19.9-34.7c-1.3-1.3-2.7-2.5-4.1-3.6c-3.2-2.6-6.7-4.7-10.3-6.4
		c-10.1-4.6-21.4-5.5-32.7-2.4c-2.1,0.6-4.2,1.3-6.3,2.2c-19.4,8.1-32.9,26.5-32.9,44.8h25.5c0-7.3,6.4-15.7,15-20.2
		c0.7-0.4,1.5-0.8,2.3-1.1c6.6-2.7,16.4-4.2,25.5,4.8c3.6,3.5,7.7,8.9,10.6,15.5c2.3,5.1,3.8,10.8,3.8,16.8c0,5.4-1.1,11-3.9,16.6
		c-5.8,11.5-16.2,20-29.2,24.1c-5.7,1.8-11.7,2.6-17.6,2.6c-9-0.1-17.9-2.3-25.9-6.6c-17.7-9.5-31.8-27.4-37.7-47.6
		c-4.3-14.7-4-29.3,0.7-42.1c1-2.7,2.1-5.2,3.5-7.7c23.1-42,80.2-57.2,124.5-33.2c6.6,3.6,12.8,7.8,18.5,12.6
		c17.3,14.5,30.1,34.4,36.9,57.5c9.1,31,5.9,64.2-8.9,91.1c-1,1.9-2.1,3.8-3.3,5.6c-11,17.9-26,32.7-43.8,43.6
		c-13.5,18.4-37.3,29.4-60.7,25.8c-1.3-0.2-2.5-0.4-3.7-0.5c-4.4-1.3-8.7-2.9-12.9-4.6c-27.1-0.5-53.8-8.4-76.6-23.4
		c-9.2-6-89-61.9-59.2-164.4c9.8-33.8,25.7-80.5,55.9-129.3c4.5-7.9,9.4-15.6,14.7-23.2c3.1-4.5,6.4-9,9.7-13.5
		c19.7-25.9,40.2-48.3,68.8-63.6c61.3-32.7,132.4-13.8,179.7,35.5c8.5,8.9,21.7,4,25.9-6.5c0.6-1.6,2-3.5,3.9-5.6
		c12.2-13.3,46.5-33.8,55.7-26.1c25.5,23,81.6,68.1,108.8,89c-3.2,32.1-88.5,66.7-122.2,71.6c-0.1,0-0.2,0-0.2,0
		c-10.1,1.6-20.1,3-30.2,4.3c-4,0.5-7.9,1-11.9,1.5c-12.1,1.4-24.3,2.7-36.5,3.8c2.6-6.3,5.2-12.5,7.9-18.8c1.5-3.6,3-7.2,4.5-10.9
		c3.9-9.4,0.6-20.1-7.4-24.2c-2.5-1.3-5.3-1.7-7.9-1.4c-3.9,0.4-7.6,2.4-10.5,5.7c-1.3,1.5-2.4,3.3-3.3,5.3
		C335.6,181.8,332.9,188.1,330.3,194.4z"/>
</g>
</svg>
